HIERARCHY
ROOT Hips
{
    OFFSET 0.000000 0.000000 0.000000
    CHANNELS 6 Xposition Yposition Zposition Zrotation Xrotation Yrotation
    JOINT Spine
    {
        OFFSET -0.000000 8.339920 0.000000
        CHANNELS 3 Zrotation Xrotation Yrotation
        JOINT Spine1
        {
            OFFSET -0.000000 25.214485 0.000000
            CHANNELS 3 Zrotation Xrotation Yrotation
            JOINT Neck
            {
                OFFSET -0.000000 25.110935 2.282812
                CHANNELS 3 Zrotation Xrotation Yrotation
                JOINT Head
                {
                    OFFSET -0.000000 14.238888 -2.034127
                    CHANNELS 3 Zrotation Xrotation Yrotation
                    End Site
                    {
                        OFFSET -0.000000 25.426584 0.000000
                    }
                }
            }
            JOINT LeftShoulder
            {
                OFFSET 4.025024 23.158985 -0.185822
                CHANNELS 3 Zrotation Xrotation Yrotation
                JOINT LeftArm
                {
                    OFFSET 11.674057 0.000000 0.000000
                    CHANNELS 3 Zrotation Xrotation Yrotation
                    JOINT LeftForeArm
                    {
                        OFFSET 31.688633 0.000000 0.000000
                        CHANNELS 3 Zrotation Xrotation Yrotation
                        JOINT LeftHand
                        {
                            OFFSET 29.704493 0.000000 0.000000
                            CHANNELS 3 Zrotation Xrotation Yrotation
                            End Site
                            {
                                OFFSET 15.255952 0.000000 0.000000
                            }
                        }
                    }
                }
            }
            JOINT RightShoulder
            {
                OFFSET -4.099539 23.158985 -0.185822
                CHANNELS 3 Zrotation Xrotation Yrotation
                JOINT RightArm
                {
                    OFFSET -11.674057 0.000000 0.000000
                    CHANNELS 3 Zrotation Xrotation Yrotation
                    JOINT RightForeArm
                    {
                        OFFSET -31.688633 0.000000 0.000000
                        CHANNELS 3 Zrotation Xrotation Yrotation
                        JOINT RightHand
                        {
                            OFFSET -29.704493 0.000000 0.000000
                            CHANNELS 3 Zrotation Xrotation Yrotation
                            End Site
                            {
                                OFFSET -15.255952 0.000000 0.000000
                            }
                        }
                    }
                }
            }
        }
    }
    JOINT LeftUpLeg
    {
        OFFSET 10.170634 0.000000 0.000000
        CHANNELS 3 Zrotation Xrotation Yrotation
        JOINT LeftLeg
        {
            OFFSET -0.000000 -41.352962 0.000000
            CHANNELS 3 Zrotation Xrotation Yrotation
            JOINT LeftFoot
            {
                OFFSET -0.000000 -47.535004 0.000000
                CHANNELS 3 Zrotation Xrotation Yrotation
                JOINT LeftToeBase
                {
                    OFFSET -0.000000 -6.610912 15.255952
                    CHANNELS 3 Zrotation Xrotation Yrotation
                    End Site
                    {
                        OFFSET -0.000000 0.000000 4.068254
                    }
                }
            }
        }
    }
    JOINT RightUpLeg
    {
        OFFSET -10.170634 0.000000 0.000000
        CHANNELS 3 Zrotation Xrotation Yrotation
        JOINT RightLeg
        {
            OFFSET -0.000000 -41.352962 0.000000
            CHANNELS 3 Zrotation Xrotation Yrotation
            JOINT RightFoot
            {
                OFFSET -0.000000 -47.535004 0.000000
                CHANNELS 3 Zrotation Xrotation Yrotation
                JOINT RightToeBase
                {
                    OFFSET -0.000000 -6.610912 15.255952
                    CHANNELS 3 Zrotation Xrotation Yrotation
                    End Site
                    {
                        OFFSET -0.000000 0.000000 4.068254
                    }
                }
            }
        }
    }
}
MOTION
Frames:    13
Frame Time:    0.008333
-254.686188    95.305908    41.052891    0.022574    -1.779391    86.431221    0.840490    -3.818908    -1.272320    1.787400    1.005657    -1.316018    -10.787311    24.799616    -4.272619    12.150443    -1.550699    -3.445159    13.270748    -0.219989    0.549027    -20.550310    -11.545130    7.448834    6.102862    -27.425451    4.484025    -5.073580    -27.756424    3.029992    -23.541002    0.054773    -7.381289    25.234531    -7.875966    1.803831    -4.032404    -20.304882    -1.893377    -12.703552    -20.027550    -3.251979    1.512194    8.321198    -0.116414    -0.611927    -6.418340    5.148086    3.231161    -2.958688    6.547898    0.000000    0.000000    0.000000    2.946684    6.534591    7.446213    -2.881166    -1.949327    -2.721643    1.940768    -4.676053    -13.268167    0.000000    0.000000    0.000000    
-254.665375    95.305420    41.046928    0.018687    -1.778556    86.430801    0.841239    -3.818039    -1.268533    1.803497    0.993388    -1.312216    -10.782764    24.792913    -4.276953    12.148321    -1.532245    -3.450866    13.257507    -0.197188    0.533986    -20.548935    -11.570608    7.457932    6.086505    -27.429935    4.476417    -5.098825    -27.759640    3.007165    -23.548746    0.062387    -7.373384    25.244339    -7.934695    1.807020    -4.041655    -20.266720    -1.904890    -12.694954    -19.991117    -3.242202    1.504548    8.330357    -0.101483    -0.613360    -6.428927    5.218870    3.192447    -2.982284    6.491090    0.000000    0.000000    0.000000    2.943166    6.544182    7.450489    -2.883712    -1.942964    -2.796385    1.852522    -4.698942    -13.178596    0.000000    0.000000    0.000000    
-254.641342    95.303711    41.042656    0.014099    -1.785957    86.428040    0.842405    -3.828135    -1.258875    1.834116    1.002361    -1.303079    -10.785271    24.793184    -4.277906    12.161529    -1.545424    -3.448670    13.251629    -0.200435    0.516555    -20.579269    -11.548162    7.469632    6.100726    -27.446712    4.462301    -5.167275    -27.777649    3.003742    -23.560291    0.052964    -7.382208    25.244276    -7.951079    1.793196    -4.045672    -20.267241    -1.896001    -12.680131    -19.990337    -3.256345    1.508744    8.346434    -0.062508    -0.616664    -6.435227    5.129295    3.221617    -2.989533    6.538463    0.000000    0.000000    0.000000    2.952266    6.571602    7.468027    -2.898901    -1.976158    -2.802738    1.897079    -4.681232    -13.203252    0.000000    0.000000    0.000000    
-254.624512    95.303642    41.035416    -0.000045    -1.782659    86.433098    0.831375    -3.836917    -1.255524    1.868875    0.997645    -1.299663    -10.788966    24.800367    -4.277711    12.163829    -1.556439    -3.447991    13.233814    -0.204519    0.501308    -20.582695    -11.576283    7.481875    6.083810    -27.426834    4.445787    -5.167033    -27.755947    2.990552    -23.557737    0.079012    -7.387604    25.229229    -8.010740    1.798768    -4.042655    -20.251143    -1.887223    -12.642755    -19.976770    -3.238181    1.498915    8.346201    -0.064657    -0.610612    -6.450480    5.188723    3.211210    -2.977163    6.476773    0.000000    0.000000    0.000000    2.939891    6.574045    7.462871    -2.890580    -1.981580    -2.760342    1.870047    -4.691669    -13.234488    0.000000    0.000000    0.000000    
-254.601746    95.299644    41.030178    -0.005301    -1.783971    86.433739    0.839837    -3.842459    -1.256765    1.874561    0.991721    -1.301209    -10.786976    24.830811    -4.266931    12.166381    -1.597975    -3.435109    13.217765    -0.212337    0.498255    -20.578890    -11.550867    7.502616    6.067224    -27.420315    4.420289    -5.159395    -27.748110    3.005404    -23.542255    0.075466    -7.358171    25.211090    -8.047965    1.770220    -4.037970    -20.223927    -1.870464    -12.629452    -19.950974    -3.221588    1.492519    8.361644    -0.049430    -0.607005    -6.463608    5.183722    3.219678    -2.985987    6.446822    0.000000    0.000000    0.000000    2.940789    6.589746    7.470683    -2.899966    -2.007940    -2.766187    1.892001    -4.694921    -13.244884    0.000000    0.000000    0.000000    
-254.583496    95.298325    41.021061    -0.020646    -1.774300    86.441933    0.827454    -3.855813    -1.250100    1.896015    0.991026    -1.294333    -10.698740    24.870096    -4.363811    12.006125    -1.623339    -3.555594    13.196718    -0.204775    0.484913    -20.578068    -11.546767    7.493545    6.063023    -27.423203    4.416476    -5.184108    -27.750427    2.985393    -23.534649    0.088853    -7.373616    25.195143    -8.069176    1.759039    -4.017559    -20.240889    -1.830979    -12.739396    -19.958199    -3.271081    1.487728    8.382820    -0.047250    -0.625000    -6.520873    5.183695    3.241777    -2.961413    6.431145    0.000000    0.000000    0.000000    2.924761    6.591030    7.464314    -2.895262    -2.012345    -2.776721    1.864056    -4.703937    -13.233435    0.000000    0.000000    0.000000    
-254.567413    95.298615    41.019512    -0.036370    -1.787120    86.447182    0.841361    -3.873169    -1.257366    1.913801    1.011059    -1.302728    -10.783407    24.776098    -4.270843    12.171729    -1.544574    -3.437727    13.192696    -0.229623    0.490524    -20.589993    -11.537526    7.523555    6.046394    -27.401138    4.389070    -5.253110    -27.725658    2.923354    -23.570528    0.072267    -7.381271    25.225908    -8.049225    1.769110    -4.007925    -20.268440    -1.816639    -12.781382    -19.982796    -3.283037    1.487781    8.358042    0.004514    -0.601742    -6.476705    5.087295    3.215651    -2.992934    6.485479    0.000000    0.000000    0.000000    2.943428    6.593954    7.470092    -2.909488    -2.014458    -2.746693    1.893597    -4.690887    -13.288704    0.000000    0.000000    0.000000    
-254.575699    95.280563    41.021259    -0.212298    -1.787933    86.407318    0.855174    -4.044844    -1.244381    1.918397    1.024178    -1.291735    -10.754482    24.900112    -4.255833    12.125443    -1.870097    -3.406464    13.207573    -0.225853    0.510337    -20.601681    -11.568071    7.523905    6.018639    -27.377087    4.371096    -5.219506    -27.699413    2.930265    -23.582027    0.029934    -7.370181    25.243107    -7.982548    1.749439    -4.006860    -20.301552    -1.798922    -12.873150    -20.009073    -3.318601    1.515881    8.196823    0.050899    -0.640086    -6.501023    5.088900    3.216448    -3.044755    6.453774    0.000000    0.000000    0.000000    2.952561    6.388327    7.501292    -2.909794    -1.994917    -2.767417    1.866582    -4.736315    -13.237942    0.000000    0.000000    0.000000    
-254.551697    95.277771    41.016899    -0.211270    -1.786176    86.424248    0.864521    -4.055211    -1.257792    1.905756    1.043606    -1.305754    -10.764523    24.912636    -4.243688    12.166510    -1.896594    -3.386698    13.221079    -0.234038    0.519535    -20.630238    -11.530643    7.540464    6.013950    -27.386408    4.339078    -5.170913    -27.707514    2.969344    -23.562120    0.022709    -7.367877    25.241421    -7.913266    1.763691    -4.023860    -20.334349    -1.802242    -12.971672    -20.035463    -3.356968    1.516521    8.244834    0.037688    -0.650573    -6.560579    5.084198    3.236308    -3.018044    6.469722    0.000000    0.000000    0.000000    2.954074    6.415872    7.497450    -2.923734    -1.754873    0.089324    1.651277    -5.115780    -16.086399    0.000000    0.000000    0.000000    
-254.531815    95.276878    41.010818    -0.227036    -1.786829    86.428894    0.880258    -4.071547    -1.261129    1.893538    1.045690    -1.309748    -10.749480    24.884119    -4.255800    12.156092    -1.843695    -3.402167    13.230686    -0.218572    0.530289    -20.645994    -11.539719    7.525801    6.014511    -27.374516    4.345495    -5.124568    -27.695753    2.990655    -23.566797    0.022002    -7.366932    25.268713    -7.856342    1.773408    -4.044654    -20.351040    -1.809354    -13.021320    -20.051008    -3.360106    1.483209    8.210673    0.097752    -0.599102    -6.512353    5.023921    3.206170    -3.045799    6.461235    0.000000    0.000000    0.000000    3.098468    5.216473    -0.873886    -2.911190    -0.128314    6.135560    1.868611    -5.917301    -13.721114    0.000000    0.000000    0.000000    
-254.510468    95.275589    41.008617    -0.231490    -1.784810    86.447083    0.886486    -4.081981    -1.273748    1.878234    1.052194    -1.322611    -10.734838    24.898672    -4.256782    12.168721    -1.846962    -3.401190    13.250656    -0.225216    0.544608    -20.674673    -11.509492    7.519247    6.017743    -27.386492    4.344124    -5.046417    -27.707233    3.024096    -23.538359    0.024497    -7.354969    25.263575    -7.856238    1.787577    -4.054040    -20.333689    -1.830592    -13.068677    -20.034670    -3.346011    1.484555    8.230221    0.074387    -0.602081    -6.533099    5.098277    3.205389    -3.060965    6.394178    0.000000    0.000000    0.000000    2.948910    6.446264    7.491231    -2.927690    -2.041468    -2.794610    1.912265    -4.743545    -13.254699    0.000000    0.000000    0.000000    
-254.488083    95.274971    41.003098    -0.234409    -1.789125    86.459549    0.903503    -4.078206    -1.269944    1.860569    1.040329    -1.318980    -10.704051    24.934099    -4.264131    12.177265    -1.888472    -3.404396    13.273521    -0.223051    0.529598    -20.702116    -11.494720    7.518719    6.017177    -27.399750    4.340593    -5.021773    -27.720247    3.038361    -23.176826    0.450678    -7.354692    24.895185    -8.158371    1.957956    -3.954191    -20.383829    -1.844326    -13.048197    -20.085264    -3.338345    1.506925    8.281569    0.040552    -0.642951    -6.620173    5.110748    3.214253    -3.024204    6.409405    0.000000    0.000000    0.000000    2.949564    6.464338    7.484052    -2.943958    -1.835365    0.093705    1.678598    -5.067319    -16.093197    0.000000    0.000000    0.000000    
-254.466217    95.274605    40.999634    -0.237452    -1.789007    86.474159    0.915021    -4.078732    -1.276575    1.844483    1.028946    -1.325774    -10.689746    24.913895    -4.281607    12.173842    -1.816274    -3.427333    13.271018    -0.212842    0.523430    -20.704872    -11.471370    7.522051    6.017015    -27.432041    4.343069    -4.993573    -27.752594    3.056343    -23.160994    0.430564    -7.337840    24.889994    -8.169517    1.933216    -3.957473    -20.363880    -1.846842    -12.985243    -20.072420    -3.289124    1.481079    8.255021    0.085006    -0.596677    -6.546990    5.084384    3.185135    -3.072582    6.349617    0.000000    0.000000    0.000000    3.084064    5.283982    -0.885017    -2.828708    -0.722730    0.028707    2.445683    -5.088465    -7.664136    0.000000    0.000000    0.000000    
